PathFileType	4	(X/Y/Z)	C:\Users\Basilio\Documents\Thesis Gigler\squatting_fais\c3dfiles\041\SJ_pre4\markers_experimental.trc
DataRate	CameraRate	NumFrames	NumMarkers	Units	OrigDataRate	OrigDataStartFrame	OrigNumFrames
200.000000	200.000000	4	62	mm	200.000000	669	1785
Frame#	Time	FHD			LBHD			RBHD			C7			T10			CLAV			LSHO			LUUPA			LMUPA			LDUPA			LLEP			LMEP			LRAD			LUL			LRFIN			RSHO			RUPA1			RMUPA			RDUPA			RLEP			RMEP			RRAD			RUL			RUFIN			LASI			RASI			USACR			LSACR			RSACR			LTHI1			LTHI2			LTHI3			LTHI4			LLFC			LMFC			LTIB1			LTIB2			LTIB3			LTIB4			LLMAL			LMMAL			LHEE			LMT1			LMT2			LMT5			RTHI			RTHI2			RTHI3			RTHI4			RLFC			RMFC			RTIB1			RTIB2			RTIB3			RTIB4			RLMAL			RMMAL			RHEE			RMT1			RMT2			RMT5			*61			
		X1	Y1	Z1	X2	Y2	Z2	X3	Y3	Z3	X4	Y4	Z4	X5	Y5	Z5	X6	Y6	Z6	X7	Y7	Z7	X8	Y8	Z8	X9	Y9	Z9	X10	Y10	Z10	X11	Y11	Z11	X12	Y12	Z12	X13	Y13	Z13	X14	Y14	Z14	X15	Y15	Z15	X16	Y16	Z16	X17	Y17	Z17	X18	Y18	Z18	X19	Y19	Z19	X20	Y20	Z20	X21	Y21	Z21	X22	Y22	Z22	X23	Y23	Z23	X24	Y24	Z24	X25	Y25	Z25	X26	Y26	Z26	X27	Y27	Z27	X28	Y28	Z28	X29	Y29	Z29	X30	Y30	Z30	X31	Y31	Z31	X32	Y32	Z32	X33	Y33	Z33	X34	Y34	Z34	X35	Y35	Z35	X36	Y36	Z36	X37	Y37	Z37	X38	Y38	Z38	X39	Y39	Z39	X40	Y40	Z40	X41	Y41	Z41	X42	Y42	Z42	X43	Y43	Z43	X44	Y44	Z44	X45	Y45	Z45	X46	Y46	Z46	X47	Y47	Z47	X48	Y48	Z48	X49	Y49	Z49	X50	Y50	Z50	X51	Y51	Z51	X52	Y52	Z52	X53	Y53	Z53	X54	Y54	Z54	X55	Y55	Z55	X56	Y56	Z56	X57	Y57	Z57	X58	Y58	Z58	X59	Y59	Z59	X60	Y60	Z60	X61	Y61	Z61	X62	Y62	Z62	

670	3.345	-226.4287872314454	1739.874145507813	-923.0681762695315	-398.7868652343751	1669.416870117188	-1005.442199707031	-383.8122863769532	1670.942138671875	-852.6353759765627	-436.9877319335939	1523.237670898438	-945.947937011719	-469.6866455078126	1207.818359375	-943.5373535156252	-281.8447265625001	1457.467651367188	-940.8448486328127	-353.3576965332032	1514.7568359375	-1113.915283203125	-409.7037353515626	1383.193359375	-1256.15087890625	-389.9668579101564	1337.68212890625	-1253.941284179688	-432.496795654297	1332.340454101563	-1297.805786132813	-444.2783813476564	1285.74365234375	-1322.02978515625	-505.8742980957032	1250.613037109375	-1262.548095703125	-375.9274902343751	1088.395751953125	-1152.496337890625	-358.6421203613282	1047.180786132813	-1212.156982421875	-328.4377441406251	1069.052001953125	-1113.809326171875	-353.9628906250001	1514.39599609375	-774.3712158203127	-428.547821044922	1370.742797851563	-617.9134521484376	-386.8229370117189	1341.664672851563	-622.6117553710939	-414.5061035156251	1310.266723632813	-582.8774414062501	-412.2676391601564	1262.337280273438	-565.2612304687501	-485.0738525390626	1238.905029296875	-619.7609863281251	-395.3421936035157	1061.044799804688	-726.3361206054689	-351.5800781250001	1053.35107421875	-769.726745605469	-362.1984863281251	1021.474731445313	-669.8850708007814	-294.0742187500001	1011.71923828125	-1048.13525390625	-307.8224182128907	1003.544311523438	-831.007751464844	-477.1019897460939	1096.069702148438	-947.8878173828127	-492.830047607422	1072.0068359375	-975.9825439453127	-500.0956115722657	1071.236450195313	-922.8164062500002	-428.3198242187501	825.837341308594	-1146.103759765625	-394.8796386718751	748.2481079101564	-1153.113159179688	-347.7787780761719	750.0601196289064	-1143.456420898438	-424.8761291503907	694.6695556640626	-1146.96630859375	-408.1408996582032	514.6748657226564	-1154.257080078125	-394.5044250488282	480.322479248047	-1040.401000976563	-369.4724426269532	319.6738891601563	-1128.561401367188	-419.6481018066407	283.6188659667969	-1194.975952148438	-381.5928039550782	278.2861328125001	-1171.202514648438	-377.6493225097657	196.7172851562501	-1150.39892578125	-432.7794799804689	101.1682815551758	-1200.453735351563	-391.7297363281251	104.0655593872071	-1119.690551757813	-487.306365966797	52.29902648925783	-1166.539306640625	-270.7691650390626	61.60688781738283	-1142.72265625	-265.2112731933594	60.555477142334	-1187.135498046875	-304.9765930175782	35.1130599975586	-1242.71875	-441.2942504882814	763.7731323242189	-746.1399536132814	-403.7781066894532	710.0474853515626	-735.1396484375001	-370.3644104003907	711.2940673828126	-736.8999023437501	-429.5786437988282	629.6929321289064	-746.4085083007814	-422.1754150390626	504.4132080078126	-733.0773925781251	-394.382293701172	473.2315063476564	-845.6602783203127	-383.3063964843751	338.8263549804688	-718.5460205078126	-463.8076171875001	262.1826782226563	-699.5349121093751	-416.8167724609376	261.4074096679688	-696.6702270507814	-391.1793823242189	211.2559051513672	-717.3390502929689	-442.4090270996095	94.83370971679689	-693.2635498046876	-410.1950073242189	102.7128219604492	-770.8616943359377	-494.7402954101564	49.66795349121095	-739.8831787109376	-277.0970764160157	53.74064254760744	-736.2870483398439	-277.1210937500001	58.87825012207033	-684.2808837890626	-322.8166809082032	36.88464736938477	-636.7841186523439	-4217.034667968751	853.1423950195315	-3944.781250000001	
671	3.35	-226.3648986816407	1739.99072265625	-923.0368652343752	-398.5756225585939	1669.276245117188	-1005.375366210938	-383.6574707031251	1670.804931640625	-852.578552246094	-436.6585083007814	1523.31884765625	-945.8867797851565	-469.7414550781251	1207.979248046875	-943.475524902344	-281.5443420410157	1457.38330078125	-940.7673950195315	-352.8700561523438	1514.81787109375	-1113.857788085938	-409.2101440429689	1383.283935546875	-1256.165771484375	-389.6110229492189	1337.738891601563	-1253.932983398438	-432.0941772460939	1332.58544921875	-1297.904296875	-444.1224365234376	1285.9580078125	-1321.9541015625	-505.6507263183595	1250.889038085938	-1262.577392578125	-376.2904663085938	1088.459106445313	-1152.413818359375	-358.9444885253907	1047.130126953125	-1212.1103515625	-328.5805969238282	1068.96923828125	-1113.817016601563	-353.3945922851563	1514.400268554688	-774.2924804687502	-427.7410278320314	1370.824340820313	-617.7990112304689	-386.1566772460939	1341.632690429688	-622.6036376953126	-413.9805297851564	1310.307006835938	-582.6734008789064	-411.6976318359376	1262.40478515625	-565.2689208984376	-484.9759826660157	1239.250366210938	-619.5134277343751	-395.5723876953126	1061.0654296875	-726.3408813476564	-351.8500976562501	1053.259033203125	-769.7180175781252	-362.3813476562501	1021.439758300781	-669.9178466796876	-294.3392333984376	1011.559631347656	-1048.134887695313	-308.2061157226563	1003.514526367188	-831.0090942382815	-477.3252868652345	1096.188232421875	-947.8035278320315	-493.1390075683595	1072.132080078125	-975.9346923828127	-500.2770080566407	1071.37109375	-922.6772460937502	-428.6426086425782	825.7786865234377	-1145.98974609375	-395.0952148437501	748.2218627929689	-1153.094970703125	-347.8982238769532	750.0900268554689	-1143.511352539063	-424.8784790039064	694.6021728515626	-1146.89501953125	-407.6654663085939	514.5732421875001	-1154.271728515625	-394.0397033691407	480.3098754882814	-1040.503662109375	-369.1386413574219	319.5444641113282	-1128.601196289063	-419.3521423339845	283.6659851074219	-1194.960815429688	-381.3958740234376	278.2630920410157	-1171.170043945313	-377.5715637207032	196.6641540527344	-1150.360229492188	-432.7607421875001	101.1699752807617	-1200.470458984375	-391.7755737304689	104.0894165039063	-1119.698486328125	-487.3016662597657	52.26665115356447	-1166.502685546875	-270.7597045898438	61.608699798584	-1142.702758789063	-265.2462158203126	60.45336914062501	-1187.135986328125	-305.0078430175782	35.11491012573243	-1242.71875	-441.3619689941407	763.7246704101564	-746.0518188476564	-403.722869873047	710.0427246093751	-735.0491333007814	-370.3217163085938	711.3358154296876	-736.8519897460939	-429.3982849121095	629.6490478515626	-746.3565673828126	-421.7013549804689	504.357879638672	-733.0486450195314	-394.0135192871095	473.2263488769532	-845.5543212890627	-382.9678955078126	338.8030090332032	-718.5196533203126	-463.5799865722657	262.2066040039063	-699.4894409179689	-416.673797607422	261.3934326171876	-696.5737304687501	-391.092254638672	211.2453002929688	-717.2617187500001	-442.3836669921876	94.83765411376955	-693.2684326171876	-410.1633300781251	102.7181472778321	-770.8421630859377	-494.7466430664064	49.66211318969728	-739.8688964843751	-277.0930786132813	53.74027252197267	-736.2980346679689	-277.1113891601563	58.8468360900879	-684.2924804687501	-322.8395690917969	36.92501068115235	-636.7412719726564	-4216.845703125001	853.1148071289065	-3944.581298828126	
672	3.355	-226.3017883300782	1740.172241210938	-923.020690917969	-398.2626953125001	1669.097778320313	-1005.282043457031	-383.3415527343751	1670.751098632813	-852.455749511719	-436.2908325195314	1523.358520507813	-945.8031005859377	-469.7542724609376	1208.155517578125	-943.4185180664065	-281.3080139160157	1457.372680664063	-940.605651855469	-352.5121459960938	1514.894409179688	-1113.810302734375	-408.890838623047	1383.367065429688	-1256.024536132813	-389.2315673828126	1337.771362304688	-1253.946411132813	-431.2834777832032	1332.466552734375	-1297.792358398438	-443.7435913085939	1286.077758789063	-1321.972778320313	-505.4266357421876	1251.23681640625	-1262.643310546875	-376.7827148437501	1088.453979492188	-1152.268310546875	-359.2744750976563	1047.067504882813	-1212.0107421875	-328.9278259277344	1068.857788085938	-1113.730712890625	-352.8613891601563	1514.452026367188	-774.2349853515627	-427.204315185547	1370.873779296875	-617.7571411132814	-385.8202514648439	1341.678955078125	-622.3493652343751	-413.471405029297	1310.369384765625	-582.4987182617189	-411.130584716797	1262.518310546875	-565.1405029296876	-484.6000976562501	1239.506713867188	-619.2504272460939	-395.8320617675782	1061.130859375	-726.2823486328126	-351.9645996093751	1053.267822265625	-769.7586059570315	-362.5412597656251	1021.500732421875	-670.0364379882814	-294.5626525878907	1011.422912597656	-1048.137451171875	-308.6700439453126	1003.477844238281	-831.064636230469	-477.6054077148439	1096.256469726563	-947.7047119140627	-493.5011596679689	1072.249145507813	-975.8190917968752	-500.5854492187501	1071.4931640625	-922.6085205078127	-429.0233459472657	825.6859130859377	-1145.87451171875	-395.2449035644532	748.2551879882814	-1153.077880859375	-348.1361694335938	750.1914672851564	-1143.55517578125	-424.9642639160157	694.6850585937501	-1146.674560546875	-407.1512145996095	514.5462646484376	-1154.295654296875	-393.3978881835939	480.2889099121095	-1040.527099609375	-368.9662780761719	319.4775085449219	-1128.583862304688	-419.0447082519532	283.7183532714844	-1194.973022460938	-381.2857360839844	278.0985412597657	-1171.13916015625	-377.2102050781251	196.5296325683594	-1150.324584960938	-433.0860900878907	101.4485244750977	-1200.507934570313	-391.7261962890626	104.0602264404297	-1119.67236328125	-487.2784118652345	52.28872680664064	-1166.4921875	-270.7056579589844	61.58734130859376	-1142.6904296875	-265.2387084960938	60.51096343994142	-1187.162109375	-305.0478210449219	35.12623596191407	-1242.72607421875	-441.4262084960939	763.6580810546876	-746.0004882812501	-403.7164306640626	710.0295410156251	-735.0491943359376	-370.2453308105469	711.4224243164064	-736.8496704101564	-429.2320861816407	629.6053466796876	-746.2334594726564	-421.3469238281251	504.3699645996095	-732.9163818359376	-393.5809326171876	473.2171325683595	-845.4716796875002	-382.4935607910157	338.6055908203126	-718.5694580078126	-463.4185485839845	262.2146911621094	-699.4379882812501	-416.4486389160157	261.4016113281251	-696.5424804687501	-390.9599609375001	211.133529663086	-717.2337646484376	-442.3395996093751	94.85226440429689	-693.2454223632814	-410.1282653808595	102.7085189819336	-770.8358154296877	-494.8270263671876	49.63634490966798	-739.8211669921876	-277.0661926269532	53.75974273681642	-736.2929687500001	-277.1157531738282	58.82278442382814	-684.3099365234376	-322.8168029785157	36.8708724975586	-636.8325195312501	-4216.812011718751	853.1231079101565	-3944.786376953126	
673	3.36	-226.0742797851563	1740.353515625	-923.0218505859377	-398.0170898437501	1668.957763671875	-1005.283935546875	-383.1077575683594	1670.650512695313	-852.3980712890627	-435.8741455078126	1523.464599609375	-945.7134399414065	-469.8292846679689	1208.326293945313	-943.299011230469	-281.1807250976563	1457.312622070313	-940.476257324219	-352.0663146972657	1514.931884765625	-1113.724487304688	-408.4627990722657	1383.492553710938	-1256.04638671875	-388.842010498047	1337.842041015625	-1253.895874023438	-431.4576110839845	1332.8330078125	-1297.861694335938	-443.4525146484376	1286.26611328125	-1321.9833984375	-505.2188720703126	1251.610717773438	-1262.759521484375	-377.0838317871094	1088.507080078125	-1152.207153320313	-359.6408996582032	1047.019775390625	-1211.972534179688	-329.3196411132813	1068.837890625	-1113.706909179688	-352.2895507812501	1514.464965820313	-774.2210693359377	-426.766815185547	1370.949584960938	-617.5126953125001	-385.3482055664064	1341.803588867188	-622.0859375000001	-412.9339294433595	1310.467651367188	-582.2816162109376	-410.6580505371095	1262.372680664063	-564.8001708984376	-484.1556701660157	1239.65869140625	-619.0510253906251	-396.026824951172	1061.2314453125	-726.2449951171876	-352.1560974121094	1053.284423828125	-769.7885742187502	-362.8422241210938	1021.432556152344	-670.0127563476564	-295.1030883789063	1011.388671875	-1048.029418945313	-309.0023498535157	1003.260314941406	-831.0393676757815	-477.8945312500001	1096.422607421875	-947.640319824219	-493.866912841797	1072.39111328125	-975.7078857421877	-500.9205627441407	1071.613647460938	-922.5268554687502	-429.3780517578126	825.613220214844	-1145.752075195313	-395.4149780273439	748.2611694335939	-1153.014282226563	-348.3092651367188	750.2788696289064	-1143.60302734375	-424.9912414550782	694.4447631835939	-1146.830078125	-406.5923461914064	514.5718383789064	-1154.363525390625	-392.6654052734376	480.2176818847657	-1040.587890625	-368.6820983886719	319.3910522460938	-1128.495971679688	-418.7112121582032	283.6772460937501	-1195.0048828125	-381.0934448242188	278.1734924316407	-1171.09033203125	-376.7160644531251	196.1073455810547	-1150.569702148438	-432.6481323242189	101.1120834350586	-1200.452392578125	-391.7129821777345	104.0670700073242	-1119.663208007813	-487.2811889648439	52.3320655822754	-1166.517822265625	-270.7543029785157	61.61438369750978	-1142.668090820313	-265.2430114746094	60.50875091552736	-1187.160400390625	-304.9720458984376	35.14866638183594	-1242.751220703125	-441.541717529297	763.5521240234376	-745.9274902343751	-403.6595764160157	710.0335083007814	-734.9732666015626	-370.2164306640626	711.4554443359376	-736.7928466796876	-429.0721435546876	629.5309448242189	-746.0867309570314	-421.0454101562501	504.4330139160157	-732.7921142578126	-393.0793457031251	473.0566711425782	-845.3362426757815	-382.2265014648438	338.6394042968751	-718.4307250976564	-463.2277832031251	262.2293395996094	-699.3542480468751	-416.2182617187501	261.3717956542969	-696.4301757812501	-390.7589111328126	211.051986694336	-717.2076416015626	-442.3248901367189	94.86118316650392	-693.2586669921876	-410.1007690429689	102.7594680786133	-770.8289794921877	-494.7332763671876	49.67538452148439	-739.8749389648439	-277.0909423828126	53.7330665588379	-736.2978515625001	-277.0664367675782	58.80278396606447	-684.3283081054689	-322.8331298828126	36.86660766601563	-636.7969360351564	-4216.788085937501	853.139099121094	-3944.653320312501	
